# xmcd
# 
# Track frame offsets:
#     150
#     17229
#     41647
#     59508
#     80069
#     97307
#     109036
#     132615
#     149543
#     174285
#     194029
# 
# Disc length: 2782
# 
# Revision: 4
# Processed by: cddbd v1.5.2PL0 Copyright (c) Steve Scherf et al.
# Submitted via: fre:ac v1.0.17
# 
DISCID=ab0adc0b
DTITLE=Champion Jack Dupree - Anthologie Du Blues Vol.1
DYEAR=1963
DGENRE=Blues
TTITLE0=The Tricks
TTITLE1=Death Of Luther King
TTITLE2=Ugly Woman
TTITLE3=In The Evening
TTITLE4=Take Me Back, Baby
TTITLE5=Early In The Morning
TTITLE6=My Black And White Dog
TTITLE7=My Next Door Neighbour
TTITLE8=I Had A Dream
TTITLE9=Goin' To Paris
TTITLE10=I'm Tired Of Moanin'
EXTD=
EXTT0=
EXTT1=
EXTT2=
EXTT3=
EXTT4=
EXTT5=
EXTT6=
EXTT7=
EXTT8=
EXTT9=
EXTT10=
PLAYORDER=
